<svg width="1920" height="1920" viewBox="0 0 1920 1920" fill="none" xmlns="http://www.w3.org/2000/svg">
<path d="M405.226 126.312V709.312L342.226 865.812L959.226 1191.81L1563.23 865.812L1499.23 709.312V126.312L1438.23 80.3125L1173.23 385.812L952.726 259.312L732.226 385.812L466.226 80.3125L405.226 126.312Z" fill="#FAFBDB"/>
<path d="M469 66.5L402.5 119L399.226 711.312L332.726 872.312L415.226 905.812L465.226 748.312L747.726 882.312C784.559 858.979 877.426 812.312 954.226 812.312C1031.03 812.312 1124.56 858.979 1161.73 882.312L1437.23 748.312L1492.73 911.812L1586 882.312L1526.5 711.312V119L1437.23 66.5L1169.5 354L959.5 245L736.5 360L469 66.5Z" fill="#FBB949"/>
<path fill-rule="evenodd" clip-rule="evenodd" d="M1499.23 126.313V709.313L1563.23 865.813L959.226 1191.81L342.226 865.813L405.226 709.313V126.313L466.226 80.3126L732.226 385.813L952.726 259.313L1173.23 385.813L1438.23 80.3126L1499.23 126.313ZM1162.85 324.521L1431.34 15L1547.23 102.391V699.877L1623.98 887.566L959.467 1246.23L281.537 888.035L357.226 700.014V102.391L473.047 15.0504L742.538 324.559L952.726 203.974L1162.85 324.521Z" fill="black"/>
<path d="M465.226 163.312V534.312L670.226 402.812L465.226 163.312Z" fill="#050515"/>
<path d="M1445.23 159.312V530.312L1240.23 398.812L1445.23 159.312Z" fill="#050515"/>
<circle cx="730.226" cy="708.312" r="109" fill="#050515"/>
<circle cx="1175.23" cy="708.312" r="109" fill="#050515"/>
<circle cx="730.226" cy="757.312" r="31" fill="#FAF8DB"/>
<circle cx="1175.23" cy="757.312" r="31" fill="#FAF8DB"/>
<path fill-rule="evenodd" clip-rule="evenodd" d="M965.232 1008.58C1021.76 1001.09 1061.5 939.803 1047.23 897.338C1028.23 840.812 872.224 845.812 856.725 897.338C842.19 945.66 885.261 1001.85 942.226 1008.65V1042.31C940.467 1043.54 938.624 1045.07 936.579 1046.77C926.418 1055.22 911.274 1067.81 876.726 1067.81C835.226 1067.81 795.726 1036.81 795.726 1036.81C795.726 1036.81 817.226 1092.29 876.726 1098.31C915.101 1102.2 942.465 1087.21 952.397 1081.77C952.689 1081.61 952.965 1081.45 953.226 1081.31C957.226 1086.65 983.526 1099.11 1030.73 1098.31C1085.73 1097.38 1111.73 1036.81 1111.73 1036.81C1111.73 1036.81 1068.23 1067.81 1030.73 1067.81C999.281 1067.81 979.225 1056.89 967.389 1050.45C966.992 1050.23 966.604 1050.02 966.226 1049.81L965.232 1008.58Z" fill="black"/>
<path d="M965.232 1008.58L965.166 1008.08L964.721 1008.14L964.732 1008.59L965.232 1008.58ZM1047.23 897.338L1046.75 897.497L1046.75 897.497L1047.23 897.338ZM856.725 897.338L857.204 897.482L857.204 897.482L856.725 897.338ZM942.226 1008.65H942.726V1008.21L942.285 1008.16L942.226 1008.65ZM942.226 1042.31L942.512 1042.72L942.726 1042.57V1042.31H942.226ZM936.579 1046.77L936.26 1046.39L936.26 1046.39L936.579 1046.77ZM795.726 1036.81L796.034 1036.42L794.601 1035.29L795.259 1036.99L795.726 1036.81ZM876.726 1098.31L876.776 1097.82L876.776 1097.82L876.726 1098.31ZM952.397 1081.77L952.157 1081.33L952.157 1081.33L952.397 1081.77ZM953.226 1081.31L953.626 1081.01L953.366 1080.67L952.986 1080.87L953.226 1081.31ZM1030.73 1098.31L1030.72 1097.81L1030.72 1097.81L1030.73 1098.31ZM1111.73 1036.81L1112.19 1037.01L1112.89 1035.37L1111.44 1036.41L1111.73 1036.81ZM967.389 1050.45L967.15 1050.88L967.15 1050.88L967.389 1050.45ZM966.226 1049.81L965.726 1049.82L965.733 1050.11L965.987 1050.25L966.226 1049.81ZM965.298 1009.07C993.722 1005.31 1017.9 988.022 1033.19 966.362C1048.46 944.713 1054.9 918.609 1047.7 897.178L1046.75 897.497C1053.82 918.532 1047.53 944.304 1032.37 965.786C1017.22 987.259 993.268 1004.36 965.166 1008.08L965.298 1009.07ZM1047.7 897.178C1042.88 882.841 1029.4 872.476 1011.8 865.778C994.188 859.075 972.357 856.005 950.655 856.319C928.953 856.632 907.343 860.328 890.172 867.187C873.022 874.038 860.187 884.092 856.246 897.194L857.204 897.482C861.012 884.821 873.489 874.928 890.543 868.116C907.575 861.312 929.059 857.63 950.669 857.318C972.281 857.007 993.98 860.065 1011.45 866.712C1028.92 873.364 1042.07 883.571 1046.75 897.497L1047.7 897.178ZM856.246 897.194C848.922 921.544 856.122 947.836 872.267 968.87C888.413 989.906 913.539 1005.73 942.166 1009.15L942.285 1008.16C913.948 1004.77 889.056 989.102 873.06 968.261C857.062 947.418 849.993 921.454 857.204 897.482L856.246 897.194ZM941.726 1008.65V1042.31H942.726V1008.65H941.726ZM941.939 1041.9C940.16 1043.15 938.3 1044.69 936.26 1046.39L936.899 1047.16C938.948 1045.45 940.774 1043.94 942.512 1042.72L941.939 1041.9ZM936.26 1046.39C931.181 1050.61 924.9 1055.83 915.593 1060C906.289 1064.18 893.936 1067.31 876.726 1067.31V1068.31C894.064 1068.31 906.557 1065.15 916.002 1060.92C925.444 1056.68 931.816 1051.38 936.899 1047.16L936.26 1046.39ZM876.726 1067.31C856.09 1067.31 835.923 1059.6 820.892 1051.87C813.381 1048 807.163 1044.14 802.824 1041.24C800.654 1039.79 798.955 1038.58 797.799 1037.74C797.221 1037.32 796.779 1036.99 796.481 1036.76C796.333 1036.65 796.221 1036.56 796.146 1036.51C796.108 1036.48 796.08 1036.45 796.061 1036.44C796.052 1036.43 796.045 1036.43 796.041 1036.42C796.038 1036.42 796.037 1036.42 796.036 1036.42C796.035 1036.42 796.035 1036.42 796.035 1036.42C796.034 1036.42 796.034 1036.42 795.726 1036.81C795.417 1037.21 795.417 1037.21 795.418 1037.21C795.418 1037.21 795.418 1037.21 795.419 1037.21C795.42 1037.21 795.422 1037.21 795.425 1037.21C795.43 1037.22 795.437 1037.22 795.447 1037.23C795.467 1037.24 795.496 1037.27 795.535 1037.3C795.612 1037.36 795.726 1037.44 795.877 1037.56C796.179 1037.79 796.626 1038.12 797.209 1038.55C798.375 1039.4 800.086 1040.61 802.268 1042.07C806.632 1044.99 812.883 1048.87 820.434 1052.76C835.528 1060.52 855.861 1068.31 876.726 1068.31V1067.31ZM795.726 1036.81C795.259 1036.99 795.26 1036.99 795.26 1036.99C795.26 1036.99 795.26 1037 795.261 1037C795.261 1037 795.263 1037 795.264 1037C795.267 1037.01 795.271 1037.02 795.276 1037.04C795.287 1037.06 795.304 1037.11 795.326 1037.16C795.369 1037.27 795.434 1037.43 795.521 1037.63C795.695 1038.04 795.957 1038.65 796.311 1039.42C797.02 1040.96 798.098 1043.16 799.578 1045.82C802.536 1051.14 807.103 1058.29 813.537 1065.63C826.407 1080.32 846.765 1095.78 876.675 1098.81L876.776 1097.82C847.186 1094.82 827.044 1079.53 814.289 1064.97C807.911 1057.69 803.384 1050.6 800.452 1045.33C798.986 1042.7 797.919 1040.52 797.22 1039C796.87 1038.24 796.612 1037.65 796.442 1037.24C796.357 1037.04 796.294 1036.89 796.253 1036.78C796.232 1036.73 796.216 1036.69 796.206 1036.67C796.201 1036.66 796.198 1036.65 796.195 1036.64C796.194 1036.64 796.193 1036.63 796.192 1036.63C796.192 1036.63 796.192 1036.63 796.192 1036.63C796.192 1036.63 796.192 1036.63 795.726 1036.81ZM876.675 1098.81C915.208 1102.71 942.685 1087.66 952.638 1082.2L952.157 1081.33C942.245 1086.76 914.994 1101.69 876.776 1097.82L876.675 1098.81ZM952.638 1082.2C952.929 1082.04 953.205 1081.89 953.465 1081.75L952.986 1080.87C952.725 1081.02 952.448 1081.17 952.157 1081.33L952.638 1082.2ZM952.826 1081.61C953.899 1083.04 956.382 1084.87 960.159 1086.78C963.958 1088.7 969.127 1090.74 975.639 1092.59C988.665 1096.29 1007.09 1099.21 1030.73 1098.81L1030.72 1097.81C1007.16 1098.21 988.836 1095.3 975.912 1091.63C969.449 1089.8 964.343 1087.77 960.611 1085.89C956.857 1083.98 954.552 1082.25 953.626 1081.01L952.826 1081.61ZM1030.73 1098.81C1058.43 1098.34 1078.8 1082.86 1092.23 1067.54C1098.94 1059.88 1103.93 1052.25 1107.24 1046.54C1108.89 1043.68 1110.13 1041.3 1110.95 1039.64C1111.36 1038.8 1111.67 1038.15 1111.87 1037.7C1111.98 1037.48 1112.05 1037.31 1112.11 1037.19C1112.13 1037.13 1112.15 1037.09 1112.16 1037.06C1112.17 1037.04 1112.18 1037.03 1112.18 1037.02C1112.18 1037.02 1112.18 1037.02 1112.18 1037.01C1112.18 1037.01 1112.18 1037.01 1112.18 1037.01C1112.18 1037.01 1112.19 1037.01 1111.73 1036.81C1111.27 1036.62 1111.27 1036.62 1111.27 1036.62C1111.27 1036.62 1111.27 1036.62 1111.27 1036.62C1111.26 1036.62 1111.26 1036.62 1111.26 1036.62C1111.26 1036.63 1111.25 1036.64 1111.25 1036.66C1111.24 1036.68 1111.22 1036.73 1111.19 1036.78C1111.14 1036.9 1111.07 1037.06 1110.97 1037.28C1110.76 1037.72 1110.46 1038.37 1110.05 1039.2C1109.24 1040.84 1108.01 1043.2 1106.37 1046.04C1103.09 1051.71 1098.14 1059.28 1091.47 1066.88C1078.15 1082.09 1058.02 1097.35 1030.72 1097.81L1030.73 1098.81ZM1111.73 1036.81C1111.44 1036.41 1111.44 1036.41 1111.44 1036.41C1111.43 1036.41 1111.43 1036.41 1111.43 1036.41C1111.43 1036.41 1111.43 1036.41 1111.43 1036.41C1111.42 1036.41 1111.42 1036.42 1111.41 1036.43C1111.38 1036.44 1111.35 1036.46 1111.31 1036.49C1111.23 1036.55 1111.11 1036.64 1110.94 1036.75C1110.62 1036.98 1110.13 1037.31 1109.5 1037.73C1108.25 1038.57 1106.41 1039.78 1104.08 1041.23C1099.42 1044.13 1092.83 1048 1085.07 1051.86C1069.52 1059.61 1049.36 1067.31 1030.73 1067.31V1068.31C1049.59 1068.31 1069.93 1060.52 1085.51 1052.76C1093.31 1048.88 1099.93 1044.99 1104.61 1042.08C1106.94 1040.62 1108.79 1039.41 1110.06 1038.56C1110.7 1038.13 1111.18 1037.8 1111.51 1037.57C1111.68 1037.46 1111.8 1037.37 1111.89 1037.31C1111.93 1037.28 1111.96 1037.26 1111.98 1037.24C1111.99 1037.24 1112 1037.23 1112.01 1037.23C1112.01 1037.22 1112.01 1037.22 1112.01 1037.22C1112.01 1037.22 1112.01 1037.22 1112.02 1037.22C1112.02 1037.22 1112.02 1037.22 1111.73 1036.81ZM1030.73 1067.31C999.41 1067.31 979.445 1056.44 967.629 1050.01L967.15 1050.88C979.006 1057.34 999.152 1068.31 1030.73 1068.31V1067.31ZM967.629 1050.01C967.231 1049.79 966.843 1049.58 966.464 1049.37L965.987 1050.25C966.365 1050.46 966.753 1050.67 967.15 1050.88L967.629 1050.01ZM966.725 1049.8L965.732 1008.57L964.732 1008.59L965.726 1049.82L966.725 1049.8Z" fill="black"/>
<path d="M961.726 1217.31L1624.73 873.812V1506.81L946.226 1882.81L961.726 1217.31Z" fill="#7DA6F2"/>
<path d="M956.726 1222.81L285.226 868.312V1509.31L956.726 1875.31V1222.81Z" fill="#5574AF"/>
<path fill-rule="evenodd" clip-rule="evenodd" d="M1646.23 1519.31V824.312L954.226 1190.1L262.226 824.312V1519.31L954.226 1904.88L1646.23 1519.31ZM979.226 1231.18V1836.01L1598.23 1491.11V903.978L979.226 1231.18ZM929.226 1836.01L310.226 1491.11V903.978L929.226 1231.18V1836.01Z" fill="black"/>
<path d="M382.21 1393.31C372.513 1456.91 325.261 1502.47 276.669 1495.06C228.077 1487.66 196.546 1430.09 206.242 1366.48C215.939 1302.88 263.19 1257.32 311.782 1264.72C360.374 1272.13 391.906 1329.7 382.21 1393.31Z" fill="#FBB949"/>
<path fill-rule="evenodd" clip-rule="evenodd" d="M377.341 1505.37C349.971 1531.76 311.641 1548.95 269.435 1542.52C227.229 1536.08 195.763 1508.25 177.499 1474.91C159.261 1441.61 152.497 1400.53 158.79 1359.25C165.083 1317.96 183.779 1280.77 211.11 1254.42C238.48 1228.03 276.81 1210.84 319.015 1217.27C361.221 1223.71 392.688 1251.54 410.952 1284.88C429.19 1318.18 435.954 1359.26 429.661 1400.54C423.367 1441.82 404.672 1479.02 377.341 1505.37ZM276.669 1495.06C325.261 1502.47 372.513 1456.91 382.209 1393.31C391.905 1329.7 360.374 1272.13 311.782 1264.72C263.19 1257.32 215.938 1302.88 206.242 1366.48C196.546 1430.09 228.077 1487.66 276.669 1495.06Z" fill="black"/>
<path d="M1538.78 1393.22C1548.48 1456.83 1595.73 1502.39 1644.32 1494.98C1692.91 1487.57 1724.45 1430.01 1714.75 1366.4C1705.05 1302.79 1657.8 1257.24 1609.21 1264.64C1560.62 1272.05 1529.09 1329.62 1538.78 1393.22Z" fill="#FBB949"/>
<path fill-rule="evenodd" clip-rule="evenodd" d="M1543.65 1505.29C1571.02 1531.68 1609.35 1548.87 1651.56 1542.43C1693.76 1536 1725.23 1508.17 1743.49 1474.82C1761.73 1441.53 1768.49 1400.45 1762.2 1359.17C1755.91 1317.88 1737.21 1280.69 1709.88 1254.34C1682.51 1227.95 1644.18 1210.76 1601.98 1217.19C1559.77 1223.62 1528.3 1251.45 1510.04 1284.8C1491.8 1318.1 1485.04 1359.17 1491.33 1400.46C1497.62 1441.74 1516.32 1478.94 1543.65 1505.29ZM1644.32 1494.98C1595.73 1502.39 1548.48 1456.83 1538.78 1393.22C1529.09 1329.62 1560.62 1272.05 1609.21 1264.64C1657.8 1257.24 1705.05 1302.79 1714.75 1366.4C1724.45 1430.01 1692.91 1487.57 1644.32 1494.98Z" fill="black"/>
</svg>
